# xmcd
#
# Track frame offsets: 
#        150
#        19755
#        40071
#        59630
#        74445
#        91728
#        103607
#        119057
#        131173
#        145529
#        165025
#        184589
#        196104
#        216141
#        228343
#        253198
#        272661
#        287933
#        301921
#        313174
#        329088
#
# Disc length: 4763 seconds
#
# Revision: 0
# Processed by: cddbd v1.5.2PL0 Copyright (c) Steve Scherf et al.
# Submitted via: ExactAudioCopy v1.1
#
DISCID=37129915
DTITLE=Various Artist - Akella Presents - vol.103 - Country-Blues  CD
DTITLE=1
DYEAR=2017
DGENRE=Country
TTITLE0=Rev.Jimmie Bratcher - Let It Be Love
TTITLE1=The Peacemakers - Come Ye Faithful
TTITLE2=Michael Quest - The Better of My Friends
TTITLE3=Willie Nelson - He Won't Ever Be Gone
TTITLE4=Rossington - Where Did Love Go
TTITLE5=Pete Gage - If I Try
TTITLE6=Marcus King Band - Sorry About Your Lover
TTITLE7=Colin James - Last Fair Deal
TTITLE8=Delta Generators - Love You Tight
TTITLE9=Cadillac Johnson - Forgiveness
TTITLE10=Paul Thorn - I Don't Like Half The Folks I Love
TTITLE11=Malcolm Holcombe - My Old Radio
TTITLE12=Terry Evans - Tears Are Rolling
TTITLE13=Taj Mahal and Keb' Mo' - Waiting On The World To Change
TTITLE14=The Mick Pini Band - Like A Road
TTITLE15=Otis Taylor - Jump To Mexico
TTITLE16=Fiona Boyes - Stubborn Old Mule
TTITLE17=Preacher Jack - Teardrop On A Rose
TTITLE18=Howard 'Guitar' Luedtke - Walkin Blues
TTITLE19=Bluehouse Project - Black Cat Blues
TTITLE20=Larry Garner - No Free Rides
EXTD=
EXTT0=
EXTT1=
EXTT2=
EXTT3=
EXTT4=
EXTT5=
EXTT6=
EXTT7=
EXTT8=
EXTT9=
EXTT10=
EXTT11=
EXTT12=
EXTT13=
EXTT14=
EXTT15=
EXTT16=
EXTT17=
EXTT18=
EXTT19=
EXTT20=
PLAYORDER=
